<?xml version="1.0" encoding="utf-8"?><svg xmlns="http://www.w3.org/2000/svg" xmlns:xlink="http://www.w3.org/1999/xlink"><symbol viewBox="0 0 100 100" preserveAspectRatio="xMidYMid" class="alds-rolling" style="background:0 0" id="loader" xmlns="http://www.w3.org/2000/svg"><circle cx="50" cy="50" fill="none" stroke="#3c8dbc" stroke-width="10" r="35" stroke-dasharray="164.93361431346415 56.97787143782138" transform="rotate(169.091 50 50)"><animateTransform attributeName="transform" type="rotate" calcMode="linear" values="0 50 50;360 50 50" keyTimes="0;1" dur="1.1s" begin="0s" repeatCount="indefinite"/></circle></symbol><symbol viewBox="0 0 24 24" id="menu" xmlns="http://www.w3.org/2000/svg"><path d="M24 3c0-.6-.4-1-1-1H1c-.6 0-1 .4-1 1v2c0 .6.4 1 1 1h22c.6 0 1-.4 1-1V3zM24 11c0-.6-.4-1-1-1H1c-.6 0-1 .4-1 1v2c0 .6.4 1 1 1h22c.6 0 1-.4 1-1v-2zM24 19c0-.6-.4-1-1-1H1c-.6 0-1 .4-1 1v2c0 .6.4 1 1 1h22c.6 0 1-.4 1-1v-2z"/></symbol><symbol viewBox="0 0 250.313 250.313" id="search-input" xmlns="http://www.w3.org/2000/svg"><path d="M244.186 214.604l-54.379-54.378c-.289-.289-.628-.491-.93-.76 10.7-16.231 16.945-35.66 16.945-56.554C205.822 46.075 159.747 0 102.911 0S0 46.075 0 102.911c0 56.835 46.074 102.911 102.91 102.911 20.895 0 40.323-6.245 56.554-16.945.269.301.47.64.759.929l54.38 54.38c8.169 8.168 21.413 8.168 29.583 0 8.168-8.169 8.168-21.413 0-29.582zm-141.275-44.458c-37.134 0-67.236-30.102-67.236-67.235 0-37.134 30.103-67.236 67.236-67.236 37.132 0 67.235 30.103 67.235 67.236s-30.103 67.235-67.235 67.235z" fill-rule="evenodd" clip-rule="evenodd"/></symbol><symbol viewBox="0 0 100 100" id="user-picture" xmlns="http://www.w3.org/2000/svg"><path d="M51.4 23c-8.2 0-14.8 6.6-14.8 14.8 0 8.2 6.6 14.8 14.8 14.8 8.2 0 14.8-6.6 14.8-14.8 0-8.2-6.6-14.8-14.8-14.8zm0-17.6c-25 0-45.3 20.3-45.3 45.3 0 25 20.3 45.3 45.3 45.3 25 0 45.3-20.3 45.3-45.3 0-25-20.3-45.3-45.3-45.3zm30.5 67.8c-6.1-10.6-17.4-17.7-30.5-17.7-13.1 0-24.5 7.1-30.6 17.7-4.6-6.3-7.4-14-7.4-22.4 0-20.9 17-38 38-38s38 17 38 38c0 8.3-2.8 16.1-7.5 22.4z"/></symbol></svg>