<svg xmlns="http://www.w3.org/2000/svg" xmlns:xlink="http://www.w3.org/1999/xlink" version="1.1" x="0px" y="0px" viewBox="0 0 100 100" style="enable-background:new 0 0 100 100;" xml:space="preserve">
<g>
<path d="M51.4,23c-8.2,0-14.8,6.6-14.8,14.8c0,8.2,6.6,14.8,14.8,14.8c8.2,0,14.8-6.6,14.8-14.8   
C66.2,29.6,59.6,23,51.4,23z M51.4,5.4c-25,0-45.3,20.3-45.3,45.3c0,25,20.3,45.3,45.3,45.3c25,0,45.3-20.3,45.3-45.3   
C96.7,25.7,76.4,5.4,51.4,5.4z M81.9,73.2c-6.1-10.6-17.4-17.7-30.5-17.7c-13.1,0-24.5,7.1-30.6,17.7c-4.6-6.3-7.4-14-7.4-22.4   
c0-20.9,17-38,38-38s38,17,38,38C89.4,59.1,86.6,66.9,81.9,73.2z"/>
</g>
</svg>
